HIERARCHY
ROOT Hips
{
	OFFSET 0.00 0.00 0.00
	CHANNELS 6 Xposition Yposition Zposition Xrotation Yrotation Zrotation
	JOINT Spine
	{
		OFFSET 0.00000 7.06766 0.00000
		CHANNELS 3 Xrotation Yrotation Zrotation
		JOINT Head
		{
			OFFSET 0.00000 15.03989 0.00000
			CHANNELS 3 Xrotation Yrotation Zrotation
			End Site
			{
				OFFSET 0.00000 4.52755 0.00000
			}
		}
		JOINT LeftShoulder
		{
			OFFSET 0.00000 10.53037 0.00000
			CHANNELS 3 Xrotation Yrotation Zrotation
			JOINT LeftArm
			{
				OFFSET 7.02886 0.00000 0.00000
				CHANNELS 3 Xrotation Yrotation Zrotation
				JOINT LeftForeArm
				{
					OFFSET 10.79770 0.00000 0.00000
					CHANNELS 3 Yrotation Zrotation Xrotation
					JOINT LeftHand
					{
						OFFSET 7.90744 0.00000 0.00000
						CHANNELS 3 Xrotation Yrotation Zrotation
						JOINT LeftHandThumb1
						{
							OFFSET 0.00000 0.00000 0.00000
							CHANNELS 3 Xrotation Zrotation Yrotation
							End Site
							{
								OFFSET 0.00000 0.00000 3.93700
							}
						}
						End Site
						{
							OFFSET 3.93700 0.00000 0.00000
						}
					}
				}
			}
		}
		JOINT RightShoulder
		{
			OFFSET 0.00000 10.53037 0.00000
			CHANNELS 3 Xrotation Yrotation Zrotation
			JOINT RightArm
			{
				OFFSET -7.02886 0.00000 0.00000
				CHANNELS 3 Xrotation Yrotation Zrotation
				JOINT RightForeArm
				{
					OFFSET -10.79770 0.00000 0.00000
					CHANNELS 3 Yrotation Zrotation Xrotation
					JOINT RightHand
					{
						OFFSET -7.90744 0.00000 0.00000
						CHANNELS 3 Xrotation Yrotation Zrotation
						JOINT RightHandThumb1
						{
							OFFSET 0.00000 0.00000 0.00000
							CHANNELS 3 Xrotation Zrotation Yrotation
							End Site
							{
								OFFSET 0.00000 0.00000 3.93700
							}
						}
						End Site
						{
							OFFSET -3.93700 0.00000 0.00000
						}
					}
				}
			}
		}
	}
	JOINT LeftUpLeg
	{
		OFFSET 4.01300 0.00000 0.00000
		CHANNELS 3 Xrotation Yrotation Zrotation
		JOINT LeftLeg
		{
			OFFSET 0.00000 -16.89976 0.00000
			CHANNELS 3 Xrotation Yrotation Zrotation
			JOINT LeftFoot
			{
				OFFSET 0.00000 -17.38918 0.00000
				CHANNELS 3 Xrotation Yrotation Zrotation
				JOINT LeftToeBase
				{
					OFFSET 0.00000 -1.27456 4.75673
					CHANNELS 3 Xrotation Yrotation Zrotation
					End Site
					{
						OFFSET 0.00000 0.00000 2.95275
					}
				}
			}
		}
	}
	JOINT RightUpLeg
	{
		OFFSET -4.01300 0.00000 0.00000
		CHANNELS 3 Xrotation Yrotation Zrotation
		JOINT RightLeg
		{
			OFFSET 0.00000 -16.89976 0.00000
			CHANNELS 3 Xrotation Yrotation Zrotation
			JOINT RightFoot
			{
				OFFSET 0.00000 -17.38918 0.00000
				CHANNELS 3 Xrotation Yrotation Zrotation
				JOINT RightToeBase
				{
					OFFSET 0.00000 -1.27456 4.75673
					CHANNELS 3 Xrotation Yrotation Zrotation
					End Site
					{
						OFFSET 0.00000 0.00000 2.95275
					}
				}
			}
		}
	}
}
MOTION
Frames: 19
Frame Time: 0.008333
 19.3535 35.3983 -21.2025 171.6484 -1.2474 178.7776 -19.5145 -0.0706 -0.1687 10.5036 -1.1919 3.4591 -38.9134 -2.2106 17.9923 4.0627 -6.1446 -6.6511 1.7281 0.0000 13.6759 0.6915 7.3133 -5.4163 33.1476 -0.0000 26.2537 -2.5477 -11.6264 -13.4122 -39.3265 -1.2870 5.9635 4.7443 -0.0000 37.2681 0.9325 -5.3268 9.9449 32.8623 0.0000 -24.3270 -0.7567 9.7530 2.7232 -6.3769 -0.0000 0.0000 -19.1272 30.5822 7.3999 27.1246 -0.0000 -0.0000 -1.6226 -10.5130 -2.1164 -2.8832 0.0000 0.0000 -17.4212 -28.9765 -0.4479 24.5670 -0.0000 -0.0000
 19.3549 35.3978 -21.2050 171.6473 -1.2286 178.7821 -19.5121 -0.0493 -0.1738 10.4883 -1.1896 3.4551 -38.8963 -2.2112 17.9902 4.0712 -6.1466 -6.6460 1.7234 0.0000 13.7017 0.6908 7.3229 -5.4036 33.1476 -0.0000 26.2537 -2.5688 -11.6104 -13.4052 -39.2735 -1.2683 5.9507 4.7326 -0.0000 37.2198 0.9289 -5.3150 9.9284 32.8623 0.0000 -24.3270 -0.7510 9.7569 2.7218 -6.3770 -0.0000 -0.0000 -19.1377 30.5975 7.4100 27.1336 -0.0000 0.0000 -1.6273 -10.4752 -2.1220 -2.8715 0.0000 0.0000 -17.4296 -28.9844 -0.4550 24.5676 0.0000 -0.0000
 19.3558 35.3974 -21.2092 171.6504 -1.2203 178.7701 -19.5097 -0.0522 -0.1548 10.4842 -1.2061 3.4296 -38.8822 -2.2000 17.9882 4.0633 -6.1393 -6.6479 1.7044 0.0000 13.7022 0.6922 7.3518 -5.3941 33.1476 -0.0000 26.2537 -2.5482 -11.6085 -13.4092 -39.2717 -1.2545 5.9566 4.7494 -0.0000 37.2004 0.9344 -5.3427 9.9356 32.8623 0.0000 -24.3270 -0.7425 9.8190 2.7305 -6.3919 0.0000 0.0000 -19.1297 30.5726 7.4145 27.1356 0.0000 0.0000 -1.6199 -10.4687 -2.1099 -2.8601 0.0000 0.0000 -17.4282 -28.9940 -0.4345 24.5145 0.0000 -0.0000
 19.3551 35.3972 -21.2123 171.6479 -1.2091 178.7791 -19.5100 -0.0355 -0.1595 10.4900 -1.1989 3.4064 -38.8818 -2.2041 17.9774 4.0632 -6.1316 -6.6399 1.7006 0.0000 13.7108 0.6922 7.3475 -5.3967 33.1476 -0.0000 26.2537 -2.5498 -11.6087 -13.4154 -39.2750 -1.2529 5.9627 4.7674 -0.0000 37.2373 0.9361 -5.3450 9.9486 32.8623 0.0000 -24.3270 -0.7360 9.7814 2.7271 -6.3854 0.0000 0.0000 -19.1340 30.5986 7.4153 27.1159 0.0000 0.0000 -1.6258 -10.4544 -2.1198 -2.8505 -0.0000 0.0000 -17.4445 -28.9962 -0.4583 24.4984 0.0000 -0.0000
 19.3568 35.3968 -21.2156 171.6444 -1.1980 178.7739 -19.5111 -0.0323 -0.1551 10.4694 -1.1912 3.4012 -38.8884 -2.2094 17.9809 4.0923 -6.1230 -6.6401 1.6979 0.0000 13.7076 0.6900 7.3516 -5.3765 33.1476 -0.0000 26.2537 -2.5529 -11.6191 -13.4169 -39.2691 -1.2241 5.9832 4.7691 -0.0000 37.2233 0.9405 -5.3692 9.9503 32.8623 0.0000 -24.3270 -0.7331 9.8265 2.7299 -6.3943 0.0000 0.0000 -19.1279 30.5809 7.4165 27.0799 -0.0000 0.0000 -1.6244 -10.4306 -2.1128 -2.8478 -0.0000 -0.0000 -17.4563 -29.0102 -0.4585 24.5053 -0.0000 0.0000
 19.3586 35.3963 -21.2191 171.6408 -1.1875 178.7684 -19.5124 -0.0304 -0.1477 10.4663 -1.2035 3.3749 -38.8854 -2.2109 17.9785 4.0780 -6.1086 -6.6374 1.6946 0.0000 13.7414 0.6898 7.3502 -5.3760 33.1476 -0.0000 26.2537 -2.5516 -11.6055 -13.4134 -39.2561 -1.2128 5.9659 4.7560 -0.0000 37.1718 0.9320 -5.3017 9.9853 32.8623 0.0000 -24.3270 -0.7215 9.7862 2.7421 -6.4058 -0.0000 0.0000 -19.1455 30.6205 7.4275 27.1097 -0.0000 0.0000 -1.6181 -10.4019 -2.1057 -2.8521 -0.0000 -0.0000 -17.4556 -28.9970 -0.4725 24.5596 0.0000 -0.0000
 19.3590 35.3959 -21.2224 171.6320 -1.1829 178.7712 -19.5188 -0.0265 -0.1531 10.4546 -1.1898 3.3726 -38.8918 -2.2113 17.9864 4.0720 -6.1085 -6.6489 1.6917 0.0000 13.7462 0.6898 7.3670 -5.3642 33.1476 -0.0000 26.2537 -2.5584 -11.6069 -13.4146 -39.2516 -1.1982 5.9713 4.7545 -0.0000 37.1675 0.9298 -5.2894 9.9849 32.8623 0.0000 -24.3270 -0.7232 9.7746 2.7423 -6.4050 0.0000 0.0000 -19.1422 30.6231 7.4378 27.0666 -0.0000 -0.0000 -1.6221 -10.3933 -2.1083 -2.8524 -0.0000 -0.0000 -17.4633 -29.0079 -0.4724 24.5107 0.0000 -0.0000
 19.3601 35.3953 -21.2259 171.6291 -1.1740 178.7702 -19.5166 -0.0332 -0.1501 10.4464 -1.1819 3.3565 -38.9141 -2.2121 17.9825 4.0785 -6.0883 -6.6372 1.6805 0.0000 13.7828 0.6900 7.3664 -5.3665 33.1476 -0.0000 26.2537 -2.5420 -11.6175 -13.4269 -39.2646 -1.1806 5.9907 4.7474 -0.0000 37.1497 0.9289 -5.2500 10.0483 32.8623 0.0000 -24.3270 -0.7119 9.7881 2.7420 -6.4209 -0.0000 -0.0000 -19.1442 30.6306 7.4255 27.0884 -0.0000 -0.0000 -1.6193 -10.3584 -2.1085 -2.8511 0.0000 0.0000 -17.4356 -29.0233 -0.4028 24.3792 0.0000 -0.0000
 19.3610 35.3945 -21.2296 171.6185 -1.1643 178.7683 -19.5266 -0.0342 -0.1462 10.4452 -1.1747 3.3376 -38.9211 -2.2100 17.9843 4.0951 -6.0885 -6.6324 1.6855 0.0000 13.7932 0.6940 7.3903 -5.3798 33.1476 -0.0000 26.2537 -2.5803 -11.5749 -13.4368 -39.2003 -1.2019 5.9799 4.7651 -0.0000 37.1434 0.9323 -5.2839 10.0210 32.8623 0.0000 -24.3270 -0.7134 9.8176 2.7439 -6.4291 -0.0000 0.0000 -19.1429 30.6136 7.4217 27.0581 0.0000 -0.0000 -1.6202 -10.3451 -2.1052 -2.8563 -0.0000 -0.0000 -17.4786 -29.0087 -0.4821 24.5023 0.0000 -0.0000
 19.3617 35.3937 -21.2335 171.6077 -1.1626 178.7698 -19.5341 -0.0421 -0.1518 10.4395 -1.1687 3.3309 -38.9261 -2.2063 17.9936 4.0669 -6.0848 -6.6375 1.6950 0.0000 13.8294 0.6946 7.3902 -5.3846 33.1476 -0.0000 26.2537 -2.5665 -11.5723 -13.4330 -39.2304 -1.1916 5.9786 4.7500 -0.0000 37.1723 0.9292 -5.2668 10.0198 32.8623 0.0000 -24.3270 -0.7100 9.7991 2.7435 -6.4408 -0.0000 -0.0000 -19.1623 30.6287 7.4357 27.1296 0.0000 0.0000 -1.6184 -10.3284 -2.1053 -2.8667 -0.0000 0.0000 -17.4840 -29.0184 -0.5019 24.5434 0.0000 -0.0000
 19.3622 35.3931 -21.2377 171.5964 -1.1640 178.7748 -19.5441 -0.0445 -0.1617 10.4273 -1.1659 3.3322 -38.9286 -2.2023 17.9983 4.0700 -6.0978 -6.6378 1.7085 0.0000 13.8214 0.6986 7.4149 -5.3977 33.1476 -0.0000 26.2537 -2.5791 -11.5761 -13.4391 -39.1905 -1.1766 5.9878 4.7428 -0.0000 37.1449 0.9321 -5.2840 10.0188 32.8623 0.0000 -24.3270 -0.7133 9.8186 2.7371 -6.4443 0.0000 0.0000 -19.1499 30.6112 7.4283 27.0921 0.0000 0.0000 -1.6164 -10.3163 -2.1097 -2.8781 0.0000 0.0000 -17.5005 -29.0165 -0.5202 24.5250 -0.0000 0.0000
 19.3631 35.3924 -21.2414 171.5873 -1.1699 178.7775 -19.5460 -0.0623 -0.1733 10.4150 -1.1430 3.3336 -38.9420 -2.2026 18.0071 4.0687 -6.0852 -6.6318 1.7044 0.0000 13.8223 0.7018 7.4145 -5.4227 33.1476 -0.0000 26.2537 -2.5405 -11.5979 -13.4435 -39.2200 -1.1661 6.0131 4.7503 -0.0000 37.1310 0.9317 -5.2604 10.0584 32.8623 0.0000 -24.3270 -0.7177 9.8054 2.7362 -6.4400 -0.0000 -0.0000 -19.1568 30.6148 7.4415 27.0868 -0.0000 0.0000 -1.6093 -10.3207 -2.1100 -2.8955 -0.0000 -0.0000 -17.4933 -29.0140 -0.5042 24.4879 -0.0000 0.0000
 19.3639 35.3919 -21.2452 171.5741 -1.1644 178.7806 -19.5554 -0.0645 -0.1815 10.3971 -1.1572 3.3403 -38.9508 -2.1932 18.0237 4.0798 -6.1017 -6.6438 1.7189 0.0000 13.8087 0.7003 7.4269 -5.4023 33.1476 -0.0000 26.2537 -2.5267 -11.5879 -13.4193 -39.2312 -1.1444 5.9932 4.7185 -0.0000 37.1417 0.9293 -5.2764 10.0038 32.8623 0.0000 -24.3270 -0.7149 9.7988 2.7334 -6.4565 0.0000 0.0000 -19.1606 30.6322 7.4354 27.1192 0.0000 -0.0000 -1.6134 -10.3108 -2.1102 -2.9013 0.0000 0.0000 -17.5046 -29.0180 -0.5258 24.5002 0.0000 -0.0000
 19.3645 35.3914 -21.2492 171.5604 -1.1691 178.7747 -19.5652 -0.0733 -0.1782 10.3869 -1.1468 3.3395 -38.9296 -2.1709 18.0314 4.0321 -6.1175 -6.6502 1.7281 0.0000 13.8097 0.7013 7.3991 -5.4294 33.1476 -0.0000 26.2537 -2.4879 -11.5969 -13.4033 -39.2807 -1.1297 5.9759 4.7056 -0.0000 37.1739 0.9263 -5.2606 10.0015 32.8623 0.0000 -24.3270 -0.7220 9.7789 2.7409 -6.4504 0.0000 -0.0000 -19.1804 30.6292 7.4321 27.1247 -0.0000 -0.0000 -1.6085 -10.3058 -2.1025 -2.9215 0.0000 0.0000 -17.4936 -29.0352 -0.5078 24.5002 -0.0000 0.0000
 19.3655 35.3909 -21.2532 171.5365 -1.1638 178.7903 -19.5879 -0.0492 -0.2110 10.3734 -1.1715 3.3666 -38.9239 -2.1935 18.0435 4.0068 -6.1094 -6.6569 1.7275 0.0000 13.7983 0.7000 7.3901 -5.4264 33.1476 -0.0000 26.2537 -2.4750 -11.6222 -13.3801 -39.2762 -1.1149 5.9638 4.7043 -0.0000 37.1795 0.9293 -5.2618 10.0303 32.8623 0.0000 -24.3270 -0.7493 9.8320 2.7257 -6.4309 -0.0000 -0.0000 -19.1735 30.5911 7.4074 27.1223 0.0000 -0.0000 -1.6260 -10.3048 -2.1193 -2.9240 -0.0000 0.0000 -17.5173 -29.0062 -0.5287 24.4848 0.0000 -0.0000
 19.3668 35.3898 -21.2574 171.5235 -1.1696 178.7774 -19.5930 -0.0615 -0.1993 10.3477 -1.1759 3.3642 -38.9264 -2.1928 18.0453 3.9990 -6.1010 -6.6585 1.7293 0.0000 13.7803 0.7025 7.4196 -5.4241 33.1476 -0.0000 26.2537 -2.4723 -11.6270 -13.3809 -39.2895 -1.1109 5.9551 4.7072 -0.0000 37.1874 0.9284 -5.2592 10.0257 32.8623 0.0000 -24.3270 -0.7334 9.7752 2.7412 -6.4798 0.0000 0.0000 -19.1540 30.6343 7.4528 27.0745 -0.0000 0.0000 -1.6188 -10.2875 -2.1045 -2.9404 0.0000 0.0000 -17.5183 -29.0244 -0.5487 24.5334 -0.0000 0.0000
 19.3671 35.3893 -21.2616 171.5023 -1.1778 178.7735 -19.6137 -0.0650 -0.2003 10.3453 -1.1792 3.3699 -38.9160 -2.1958 18.0409 3.9918 -6.0979 -6.6533 1.7331 0.0000 13.7659 0.7021 7.4231 -5.4183 33.1476 -0.0000 26.2537 -2.4579 -11.6430 -13.3707 -39.3068 -1.0936 5.9399 4.6988 -0.0000 37.1905 0.9289 -5.2619 10.0258 32.8623 0.0000 -24.3270 -0.7472 9.7422 2.7464 -6.4739 -0.0000 -0.0000 -19.1980 30.6505 7.4630 27.1341 0.0000 0.0000 -1.6197 -10.3019 -2.0971 -2.9652 0.0000 0.0000 -17.5119 -29.0284 -0.5521 24.5550 0.0000 -0.0000
 19.3693 35.3890 -21.2621 171.4622 -1.1318 178.7779 -19.6491 -0.0096 -0.2059 10.3316 -1.1936 3.4028 -38.8967 -2.2013 18.0466 3.9777 -6.1110 -6.6518 1.7456 0.0000 13.7471 0.6991 7.4163 -5.4005 33.1476 -0.0000 26.2537 -2.4827 -11.6541 -13.3626 -39.2890 -1.0954 5.9304 4.7115 -0.0000 37.2091 0.9290 -5.2519 10.0454 32.8623 0.0000 -24.3270 -0.7811 9.7959 2.7450 -6.4836 0.0000 0.0000 -19.1726 30.6580 7.4534 27.0773 -0.0000 -0.0000 -1.6715 -10.2360 -2.0986 -2.9510 -0.0000 0.0000 -17.5287 -29.0384 -0.5623 24.5070 -0.0000 0.0000
 19.3704 35.3884 -21.2668 171.4479 -1.1238 178.7794 -19.6603 0.0006 -0.2172 10.3288 -1.1925 3.4300 -38.9114 -2.2199 18.0544 3.9912 -6.0999 -6.6471 1.7463 0.0000 13.7490 0.6975 7.3959 -5.4029 33.1476 -0.0000 26.2537 -2.5059 -11.6468 -13.3575 -39.2818 -1.1124 5.9109 4.7362 -0.0000 37.2619 0.9378 -5.2870 10.0737 32.8623 0.0000 -24.3270 -0.7837 9.7927 2.7468 -6.4889 -0.0000 -0.0000 -19.1793 30.6646 7.4548 27.1130 0.0000 -0.0000 -1.6710 -10.2003 -2.1005 -2.9614 0.0000 -0.0000 -17.5230 -29.0541 -0.5608 24.4947 0.0000 -0.0000
